<svg height="512" viewBox="0 0 64 64" width="512" xmlns="http://www.w3.org/2000/svg"><g id="Education-Focus-Graduation-Collage-School"><g fill="#bddbff"><path d="m45 29.81v-4.81c0-2.35-5.96-4-13-4s-13 1.65-13 4v4.81l-8-5.81 21-13 21 13z"/><path d="m48 44v4l-14-4z"/><path d="m45 31v1c0 1.17-5.96 3-13 3s-13-1.83-13-3v-1c0-2.35 5.96-4 13-4s13 1.65 13 4z"/><path d="m35 40v2a2.006 2.006 0 0 1 -2 2h-4a2.006 2.006 0 0 0 2-2v-2a2.006 2.006 0 0 0 -2-2h4a2.006 2.006 0 0 1 2 2z"/><path d="m34 44 1 8-3-3-3 3 1-8h3z"/><path d="m30 44-11.35 4.38-1.65-4.38z"/><path d="m18 40v2a2 2 0 0 1 -4 0v-2a2 2 0 0 1 4 0z"/></g><path d="m61 31h-1.03a28.014 28.014 0 0 0 -26.97-26.97v-1.03a1 1 0 0 0 -2 0v1.03a28.014 28.014 0 0 0 -26.97 26.97h-1.03a1 1 0 0 0 0 2h1.03a28.014 28.014 0 0 0 26.97 26.97v1.03a1 1 0 0 0 2 0v-1.03a28.014 28.014 0 0 0 26.97-26.97h1.03a1 1 0 0 0 0-2zm-4 2h.97a26.012 26.012 0 0 1 -24.97 24.97v-.97a1 1 0 0 0 -2 0v.97a26.012 26.012 0 0 1 -24.97-24.97h.97a1 1 0 0 0 0-2h-.97a26.012 26.012 0 0 1 24.97-24.97v.97a1 1 0 0 0 2 0v-.97a26.012 26.012 0 0 1 24.97 24.97h-.97a1 1 0 0 0 0 2z" fill="#57a4ff"/><path d="m54 33.28v-9.32a1 1 0 0 0 -.47-.81l-21-13a1.011 1.011 0 0 0 -1.06 0l-21 13a1 1 0 0 0 -.06 1.66l7.59 5.51v1.68c0 2.58 8.28 4 14 4s14-1.42 14-4v-1.68l6-4.36v7.32a2 2 0 1 0 2 0zm-10-1.5c-.84.71-5.62 2.22-12 2.22s-11.16-1.51-12-2.22v-.78c0-1.05 4.12-3 12-3s12 1.95 12 3zm0-3.56c-2.58-1.51-7.3-2.22-12-2.22s-9.42.71-12 2.22v-3.22c0-1.05 4.12-3 12-3s12 1.95 12 3zm2-.37v-2.85c0-3.45-7.03-5-14-5s-14 1.55-14 5v2.85l-5.21-3.78 19.21-11.89 19.21 11.89z" fill="#57a4ff"/><path d="m48 37h-32a3.009 3.009 0 0 0 -3 3v2a3.009 3.009 0 0 0 3 3h.31l1.4 3.73a1.017 1.017 0 0 0 .94.65.922.922 0 0 0 .36-.07l9.79-3.78-.79 6.35a1 1 0 0 0 .55 1.02 1.022 1.022 0 0 0 1.15-.19l2.29-2.3 2.29 2.3a1.007 1.007 0 0 0 .71.29.976.976 0 0 0 .44-.1 1 1 0 0 0 .55-1.02l-.81-6.5 12.55 3.58a.842.842 0 0 0 .27.04 1 1 0 0 0 1-1v-3.18a3.01 3.01 0 0 0 2-2.82v-2a3.009 3.009 0 0 0 -3-3zm-31 5a1 1 0 0 1 -2 0v-2a1 1 0 0 1 2 0zm2.23 5.08-.79-2.08h6.19zm10.77-5.08a1 1 0 0 1 -1 1h-10.18a3 3 0 0 0 .18-1v-2a3 3 0 0 0 -.18-1h10.18a1 1 0 0 1 1 1zm2.71 6.29a1.008 1.008 0 0 0 -1.42 0l-.94.94.53-4.23h2.24l.53 4.23zm1.29-6.29a1 1 0 0 1 -1 1h-1.18a3 3 0 0 0 .18-1v-2a3 3 0 0 0 -.18-1h1.18a1 1 0 0 1 1 1zm13 4.67-5.86-1.67h5.86zm2-4.67a1 1 0 0 1 -1 1h-12.18a3 3 0 0 0 .18-1v-2a3 3 0 0 0 -.18-1h12.18a1 1 0 0 1 1 1z" fill="#57a4ff"/></g></svg>