<svg height="512" viewBox="0 0 64 64" width="512" xmlns="http://www.w3.org/2000/svg"><g id="Global-Info-World-Book-Reading"><g fill="#bddbff"><path d="m61 32a28.872 28.872 0 0 1 -9.01 21 28.592 28.592 0 0 0 -8.93-5.8c.02-.07.04-.13.06-.2h7.88v-15z"/><path d="m51 21v26h-19l4-4h11v-22z"/><path d="m51.99 11a28.592 28.592 0 0 1 -8.93 5.8c-2.28-8.28-6.38-13.8-11.06-13.8a28.82 28.82 0 0 1 19.99 8z"/><path d="m51.99 53a28.82 28.82 0 0 1 -19.99 8c4.68 0 8.78-5.52 11.06-13.8a28.592 28.592 0 0 1 8.93 5.8z"/><path d="m20.94 47.2a28.592 28.592 0 0 0 -8.93 5.8 28.872 28.872 0 0 1 -9.01-21h10v15h7.88c.02.07.04.13.06.2z"/><path d="m32 47h-19v-26h4v22h11z"/><path d="m32 3c-4.68 0-8.78 5.52-11.06 13.8a28.592 28.592 0 0 1 -8.93-5.8 28.82 28.82 0 0 1 19.99-8z"/><path d="m32 61a28.82 28.82 0 0 1 -19.99-8 28.592 28.592 0 0 1 8.93-5.8c2.28 8.28 6.38 13.8 11.06 13.8z"/></g><path d="m32 2a30 30 0 1 0 30 30 30.037 30.037 0 0 0 -30-30zm27.97 29h-7.97v-10a1 1 0 0 0 -1-1h-3v-3a1 1 0 0 0 -1-1h-.04a29.707 29.707 0 0 0 5-3.62 27.9 27.9 0 0 1 8.01 18.62zm-23.56 13h10.59a1 1 0 0 0 1-1v-21h2v24h-15.59zm-3.41.59v-23.18l3.41-3.41h9.59v24h-10a1.033 1.033 0 0 0 -.71.29zm17.48-33.6a27.425 27.425 0 0 1 -6.78 4.41c-1.47-4.83-3.52-8.52-5.91-10.8a28.008 28.008 0 0 1 12.69 6.39zm-18.48-6.99c3.84 0 7.53 4.57 9.79 12h-5.79a1.033 1.033 0 0 0 -.71.29l-3.29 3.3-3.29-3.3a1.033 1.033 0 0 0 -.71-.29h-5.79c2.26-7.43 5.95-12 9.79-12zm-15 40h10.59l2 2h-15.59v-24h2v21a1 1 0 0 0 1 1zm11.71-1.71a1.033 1.033 0 0 0 -.71-.29h-10v-24h9.59l3.41 3.41v23.18zm-2.5-37.69c-2.39 2.28-4.44 5.97-5.91 10.8a27.425 27.425 0 0 1 -6.78-4.41 28.008 28.008 0 0 1 12.69-6.39zm-14.17 7.78a29.707 29.707 0 0 0 5 3.62h-.04a1 1 0 0 0 -1 1v3h-3a1 1 0 0 0 -1 1v10h-7.97a27.9 27.9 0 0 1 8.01-18.62zm-8.01 20.62h7.97v14a1 1 0 0 0 1 1h4.04a29.707 29.707 0 0 0 -5 3.62 27.9 27.9 0 0 1 -8.01-18.62zm9.49 20.01a27.425 27.425 0 0 1 6.78-4.41c1.47 4.83 3.52 8.52 5.91 10.8a28.008 28.008 0 0 1 -12.69-6.39zm18.48 6.99c-3.84 0-7.53-4.57-9.79-12h19.58c-2.26 7.43-5.95 12-9.79 12zm5.79-.6c2.39-2.28 4.44-5.97 5.91-10.8a27.425 27.425 0 0 1 6.78 4.41 28.008 28.008 0 0 1 -12.69 6.39zm14.17-7.78a29.707 29.707 0 0 0 -5-3.62h4.04a1 1 0 0 0 1-1v-14h7.97a27.9 27.9 0 0 1 -8.01 18.62z" fill="#57a4ff"/><path d="m21 25h7a1 1 0 0 0 0-2h-7a1 1 0 0 0 0 2z" fill="#57a4ff"/><path d="m21 31h7a1 1 0 0 0 0-2h-7a1 1 0 0 0 0 2z" fill="#57a4ff"/><path d="m29 36a1 1 0 0 0 -1-1h-7a1 1 0 0 0 0 2h7a1 1 0 0 0 1-1z" fill="#57a4ff"/><path d="m36 25h7a1 1 0 0 0 0-2h-7a1 1 0 0 0 0 2z" fill="#57a4ff"/><path d="m36 31h7a1 1 0 0 0 0-2h-7a1 1 0 0 0 0 2z" fill="#57a4ff"/><path d="m43 37a1 1 0 0 0 0-2h-7a1 1 0 0 0 0 2z" fill="#57a4ff"/></g></svg>