<svg height="512" viewBox="0 0 64 64" width="512" xmlns="http://www.w3.org/2000/svg"><g id="Education-Lamp-Cloud_icon-Idea-Light" data-name="Education-Lamp-Cloud icon-Idea-Light"><circle cx="58" cy="46" fill="#bddbff" r="3"/><path d="m52.35 22.35a8 8 0 0 1 -2.35 15.65h-10.46a11 11 0 1 0 -15.08 0h-10.46a7.992 7.992 0 0 1 -3.94-14.95 9.24 9.24 0 0 1 -.06-1.05 10 10 0 0 1 13.94-9.19 14.991 14.991 0 0 1 28.41 9.54z" fill="#bddbff"/><path d="m36 49.33v3.67a2.006 2.006 0 0 1 -2 2h-4a2.006 2.006 0 0 1 -2-2v-2.33z" fill="#bddbff"/><circle cx="6" cy="46" fill="#bddbff" r="3"/><g fill="#57a4ff"><path d="m59 30a9.014 9.014 0 0 1 -9 9h-6a1 1 0 0 1 0-2h6a7 7 0 0 0 2.06-13.69 1 1 0 0 1 -.66-1.25 13.993 13.993 0 0 0 -26.52-8.9 1.04 1.04 0 0 1 -.54.57.987.987 0 0 1 -.79 0 9 9 0 0 0 -12.55 8.27c0 .32.02.63.05.94a1.02 1.02 0 0 1 -.5.98 6.993 6.993 0 0 0 3.45 13.08h6a1 1 0 0 1 0 2h-6a9 9 0 0 1 -4.99-16.49c-.01-.17-.01-.34-.01-.51a11.006 11.006 0 0 1 14.38-10.47 15.994 15.994 0 0 1 30.18 10.2 8.953 8.953 0 0 1 5.44 8.27z"/><path d="m33 15v-3a1 1 0 0 0 -2 0v3a1 1 0 0 0 2 0z"/><path d="m14 28a1 1 0 0 0 0 2h3a1 1 0 0 0 0-2z"/><path d="m47 30h3a1 1 0 0 0 0-2h-3a1 1 0 0 0 0 2z"/><path d="m21.707 19.707a1 1 0 0 0 0-1.414l-2-2a1 1 0 0 0 -1.414 1.414l2 2a1 1 0 0 0 1.414 0z"/><path d="m44.293 16.293-2 2a1 1 0 1 0 1.414 1.414l2-2a1 1 0 0 0 -1.414-1.414z"/><path d="m32 18a12 12 0 0 0 -7 21.74v3.26a1.011 1.011 0 0 0 .35.76.987.987 0 0 0 .65.24.86.86 0 0 0 .16-.01l12-2a1 1 0 0 0 .84-.99v-1.26a12 12 0 0 0 -7-21.74zm5.45 20.38a1 1 0 0 0 -.45.83v.94l-10 1.67v-2.61a1 1 0 0 0 -.45-.83 10 10 0 1 1 10.9 0z"/><path d="m36 34a1 1 0 0 1 -1 1h-6a1 1 0 0 1 0-2v-2a1 1 0 0 1 0-2v-2a1 1 0 0 1 0-2h6a1 1 0 0 1 0 2h-4v2h3a1 1 0 0 1 0 2h-3v2h4a1 1 0 0 1 1 1z"/><path d="m38.99 44.84a1 1 0 0 1 -.83 1.15l-12 2a.86.86 0 0 1 -.16.01 1 1 0 0 1 -.16-1.99l12-2a1 1 0 0 1 1.15.83z"/><path d="m58 42a3.993 3.993 0 0 0 -1 7.86v10.14h-22v-4.18a3.01 3.01 0 0 0 2-2.82v-2.82l1.16-.19a1 1 0 0 0 -.32-1.98l-12 2a1 1 0 0 0 .16 1.99.86.86 0 0 0 .16-.01l.84-.14v1.15a3.01 3.01 0 0 0 2 2.82v4.18h-22v-10.14a4 4 0 1 0 -2 0v11.14a1 1 0 0 0 1 1h24a1 1 0 0 0 1-1v-5h2v5a1 1 0 0 0 1 1h24a1 1 0 0 0 1-1v-11.14a3.993 3.993 0 0 0 -1-7.86zm-54 4a2 2 0 1 1 2 2 2.006 2.006 0 0 1 -2-2zm30 8h-4a1 1 0 0 1 -1-1v-1.49l6-1v2.49a1 1 0 0 1 -1 1zm24-6a2 2 0 1 1 2-2 2.006 2.006 0 0 1 -2 2z"/></g></g></svg>